<?xml version="1.0" encoding="utf-8"?>
<!-- Generator: Adobe Illustrator 18.1.0, SVG Export Plug-In . SVG Version: 6.00 Build 0)  -->
<svg version="1.1" id="Layer_1" xmlns="http://www.w3.org/2000/svg" xmlns:xlink="http://www.w3.org/1999/xlink" x="0px" y="0px"
	 viewBox="0 0 1500 1500" enable-background="new 0 0 1500 1500" xml:space="preserve">
<g>
	<g>
		<path fill="#B93640" d="M901.5,554.5l1.5,0.2c6.1-2.2,10.4-4.8,14.7-8.8c28.1-25.6,64.6-39.1,105.3-39.1h0c13,0,24.1,0.6,34.7,2
			c5.4,0.7,10.6,1.6,15.6,2.7c9.4-8.9,18.9-16,28.4-21.9c-55.1-31.4-117.3-55.5-184.4-70.7c-0.2,2.1-0.2,4-0.5,6.2
			c4,8.9,6.1,18.6,6,28.6c0,22.1-4.4,43.8-13,63.8c-2.6,6.2-6.3,12-10.9,17.2c0,5,0,10,0.1,15C900,551.4,900.8,553,901.5,554.5z"/>
		<path fill="#3B5FAB" d="M437.6,511.9c14.5-3.8,29.6-5.7,45-5.7c37.4,0,73.9,11.8,102.6,33.2c3.6,2.7,8.7,6.3,13.8,11.6
			c0.8,0.2,1.6,0.5,2.4,0.7l1.2-2.2c-0.2-4.9-0.3-9.8-0.3-14.8c-4.1-4.8-7.5-10.2-10-16c-9.1-21.4-13.6-44-13.6-67.4
			c0-9.1,2-18,5.9-26.3c-0.2-1.8-0.2-3.8-0.3-5.7c-64.8,14.9-125.1,38.1-178.8,68.2C416.2,493.7,427,501.7,437.6,511.9z"/>
		<path fill="#3B5FAB" d="M1328.6,758.1c-18.6,14.6-54.8,28.6-87.9,34c-24.5,4-49.5,5.1-67.5,5.2c-4.2,14.1-8.1,29.6-12,47.6
			c-13.2,60.8-36.1,111.4-70.3,154.6c-18.6,23.6-42,44.7-71.1,63.9c-0.9,29.9-9.6,58.8-25.8,86.5c0.6,9.8,1.1,23.4,1.7,40.7l0.6,17
			l-8.8,14.5c-20.2,33.2-57.1,74.5-101.2,106.8c265.4-48.1,463.4-234.9,463.4-458.2c0-39.8-6.3-78.4-18.1-115.2
			C1330.6,756.3,1329.7,757.3,1328.6,758.1z"/>
		<path fill="#B93640" d="M528.7,1229.3l-14.2-16.8c0,0,1.7-46.4,2.5-63.3c-0.4-0.8-0.8-1.5-1.2-2.3c-10.4-19.7-15.6-30-18.4-39.7h0
			c-1.6-5.6-3.8-15.1-6.9-32.9c-0.8-4.9-1.6-8.9-2.3-12.3c-59.9-39.5-102.6-97.6-126.8-172.7c-4.2-13.2-7.5-26.8-10.8-40.4
			c-2-8.3-3.9-16.6-6.3-24.8c-2.4-8.5-5-16.9-7.7-25.4c-8.3,0.4-16.5,0.6-24.3,0.6c-31.2,0-45.5-3.5-53.6-6.1
			c-8.7-2.8-49.9-17.3-85-43.4c-13,38.6-20.1,79.1-20.1,120.9c0,226.9,204.4,416.3,476.3,460.5
			C592.7,1302.1,558.3,1264.4,528.7,1229.3z"/>
		<path fill="#A8A8A8" d="M1410,549.3c-9.2-15.6-18-31.4-25.9-47.6c-13.7-28.1-25.9-56.9-39.9-84.9c-14.1-28.1-29.2-55.7-49-80.5
			c-22.1-27.7-47-52.5-75.3-73.9c-8.3-6.3-17.2-10.6-27.9-11c-16-0.7-32-2.4-48-2.8c-27.9-0.6-55.8-1-83.7-0.4
			c-14.4,0.3-25.3,8.1-27.1,22.3c-0.6,4.6-0.8,9.3-0.6,14c0.1,1.5,0,3.1,0.2,4.5c1.3,10.2,2.2,20.4,2,30.6
			c-0.1,6.9-0.5,13.7-1.9,20.6c-0.2,1.2,0.2,2.4,0.5,3.7c0.2,0.8,0,1.6,0.3,2.3c5,13.1,21.5,17.3,34.9,8.7c2.5-1.6,4.2-1.4,7-0.8
			c6.1,1.4,13.5,3.6,18.5,1.4c8-3.5,15.7-3.8,23.8-3.9c3.3-0.1,6.6,0.2,9.7,0.9c7.6,1.8,14.5,1.1,20.9-3.8c1.8-1.4,4.2-2.3,6.4-2.6
			c13.4-1.8,17.9-5.7,21.1-18.9c0.1-0.4,0.6-0.8,1.8-2.2c7.6,15.6,19.7,41.5,29.5,72.4c1.8,6.6,9.1,39.3,8.9,44.1
			c-0.6,17.5,2.6,34.1,8.1,50.5c4.1,12.2,8.3,24.4,12.6,37.2c-0.9-0.4-1.8-0.6-2.7-1c-60.4-24.5-108.5-9.1-144.5,45.7
			c-11.7-9.8-25-13.8-38.9-15.6c-9.1-1.1-18.4-1.6-27.6-1.5c-25.2,0-48.3,7.3-67,24.3c-10,9-20.5,15.3-33,20
			c-9.7,3.6-18.6,4.2-28.5,3.1c-20.7-2.2-35.9-11.6-44.1-31.2c-1.6-3.8-4-7.4-5.2-11.3c-1.5-4.9-2.9-10.1-3.1-15.2
			c-0.3-11.2-0.1-22.4,0-33.7c0-2.4,0-4.7,0-7.1c0-7.2,2.7-10.3,9.2-12.5c2.4-0.8,5.2-3.1,6.2-5.4c5.1-11.8,7.4-24.3,7.9-37.1
			c0.1-1.6,0.5-3.1,0.5-4.8c0-2.6-1.2-6.1-3-7.7c-2.5-2.1-3.3-4.4-3.7-6.9c-0.2-1.4-0.4-2.9-0.2-4.5c0.5-4.6,0.8-9.3,1.1-13.9
			c0.9-6.1,1.2-11.7,1.2-17.1c0.3-25.2-7.1-41.5-10.1-47c-3.8-8.2-8.8-15.7-14.6-22.7c-5.2-12.9-1.9-46.2-1.9-46.2
			c-2.2,10-4.3,18.7-6.1,25.8c-0.3-13.1,0.9-26.4,0.9-26.4c-0.5,2.4-1,4.6-1.5,6.8c0.3-7.4,0.8-13,0.8-13c-2.6,11.9-5.1,22-7.2,29.8
			c0-11.7,1-22.6,1-22.6c-1.5,7.2-3.1,13.7-4.5,19.4c-0.7-14,0.8-29.8,0.8-29.8c-1,4.5-1.9,8.7-2.9,12.7c0.3-5.3,0.6-9,0.6-9
			c-1.6,7.6-3.2,14.4-4.7,20.4c0.3-4.1,0.5-6.7,0.5-6.7c-0.5,2.2-1,4.3-1.4,6.4c-0.5-13.5,0.9-28,0.9-28c-2.1,9.9-4.2,18.4-6.1,25.6
			v0c0.3-6.2,0.7-10.7,0.7-10.7c-0.2,0.8-0.3,1.5-0.5,2.3c0.3-7.1,0.8-12.4,0.8-12.4c-1,4.7-2,9-3,13.2c0.1-1.9,0.3-3.3,0.3-3.3
			c-0.5,2.4-1,4.6-1.5,6.8c0.3-7.4,0.8-13,0.8-13c-1.5,7.2-3.1,13.7-4.5,19.4c-0.4-13.4,0.9-27.4,0.9-27.4
			c-1.2,5.4-2.3,10.3-3.4,14.9c0.2-2.1,0.3-3.7,0.3-3.7c-0.6,2.7-1.1,5.1-1.7,7.6c0.1-1.7,0.2-3,0.2-3c-0.9,4.1-1.8,7.9-2.6,11.6
			l0,0c-0.1-11.7,1-22.6,1-22.6c-1.7,7.8-3.3,14.7-4.9,20.9c0.2-10.1,1-18.7,1-18.7c-0.9,4-1.7,7.8-2.6,11.3c0.1-10.6,1-19.9,1-19.9
			c-0.7,3.3-1.4,6.4-2.1,9.4c0.3-4.3,0.5-7.2,0.5-7.2c-1.8,8.6-3.7,16.1-5.3,22.7c-1.2-0.3-2.5-0.5-3.7-0.8c0.3-7.9,0.9-14,0.9-14
			c-1,4.8-2.1,9.3-3.1,13.5c-0.1,0-0.2,0-0.3-0.1c-0.1-11.9,1-23,1-23c-1.8,8.3-3.5,15.6-5.2,22.1c-0.4-13.4,0.9-27.6,0.9-27.6
			c-2.2,10.3-4.4,19.2-6.3,26.6c0,0-0.3-0.1-0.4-0.1c0.3-7.9,0.9-14,0.9-14c-0.5,2.2-0.9,4.2-1.4,6.3c0-11.8,1-22.7,1-22.7
			c-1,4.7-2,9-3,13.1c0.1-1.8,0.3-3.2,0.3-3.2c-1.4,6.5-2.8,12.4-4.1,17.8c-0.1-12,1-23.4,1-23.4c-0.7,3-1.3,5.9-1.9,8.7
			c0.2-2.8,0.4-4.9,0.4-4.9c-1.4,6.5-2.8,12.4-4.1,17.7c0.3-4.8,0.6-8.1,0.6-8.1c-0.7,3.3-1.4,6.3-2.1,9.3
			c-0.4-13.2,0.9-26.7,0.9-26.7c-1.5,7.2-3.1,13.7-4.5,19.4c0-0.1,0-0.2,0-0.3c0.3-4.9,0.6-8.4,0.6-8.4c-0.2,0.7-0.3,1.4-0.5,2.1
			c0.3-7.6,0.9-13.4,0.9-13.4c-1.5,7-3,13.3-4.4,18.9c0.3-8,0.9-14.1,0.9-14.1c-1.4,6.4-2.7,12.1-4,17.4c0.3-8.3,0.9-14.9,0.9-14.9
			c-1.4,6.5-2.8,12.4-4.1,17.7c-0.1-12.3,1-24.2,1-24.2c-1.1,5.1-2.2,9.7-3.2,14.1c0.3-8.2,0.9-14.6,0.9-14.6
			c-1.5,7.1-3,13.6-4.5,19.3c0.2-10.1,1-18.6,1-18.6c-0.9,4.2-1.8,8.1-2.7,11.8c0.2-2.3,0.3-4.1,0.3-4.1c-1.8,8.5-3.6,15.9-5.3,22.4
			c-0.1-12.2,1-23.9,1-23.9c-1.2,5.7-2.4,10.8-3.6,15.6c0.2-3.5,0.5-5.9,0.5-5.9c-0.3,1.6-0.7,3-1,4.5c0.1-10.9,1-20.6,1-20.6
			c-1.1,5-2.1,9.6-3.2,14c0.3-7.6,0.9-13.3,0.9-13.3c-0.9,4.3-1.8,8.3-2.7,12.1c0.3-7,0.8-12.2,0.8-12.2c-1.6,7.5-3.2,14.3-4.7,20.3
			c0.3-7.4,0.8-13,0.8-13c-1.5,7.1-3,13.5-4.5,19.3c0.3-8.4,0.9-15,0.9-15c-0.5,2.3-1,4.4-1.5,6.5c0.3-6.4,0.7-11.1,0.7-11.1
			c-1.4,6.5-2.8,12.4-4.1,17.7c-0.1-12.3,1-24.2,1-24.2c-0.4,1.9-0.8,3.6-1.2,5.4c0.2-3.2,0.4-5.5,0.4-5.5c-3,14.1-6,25.8-8.3,34
			c0-1.2-0.1-2.5-0.1-3.7c0.2-10.1,1-18.8,1-18.8c-0.1,0.5-0.2,1-0.3,1.5c0.2-3,0.4-5.1,0.4-5.1c-1.2,5.8-2.5,11.1-3.7,16
			c0.2-9.3,0.9-17,0.9-17c-1.4,6.5-2.8,12.4-4.1,17.7c-0.1-12.3,1-24.2,1-24.2c-1.5,7.1-3,13.5-4.4,19.2c0-0.5,0.1-1.2,0.1-1.2
			c-0.5,2.3-1,4.3-1.4,6.4c-1,3.7-1.9,7.2-2.7,10.1c-0.1-11.9,1-22.9,1-22.9c-0.5,2.2-0.9,4.2-1.4,6.3c0.3-5.7,0.7-9.9,0.7-9.9
			c-3.1,14.4-6.2,26.2-8.5,34.5c-0.1-11.9,1-22.9,1-22.9c-4.7,22.1-9.4,38-11.4,44.4c-13.8,15.3-23.5,34.2-26.7,55.2
			c-1,6.4-1.1,12.7-1,19c0.2,10.8,1.3,21.5,2.4,32.2c0.1,1.4-0.1,2.5-0.4,3.7c-0.4,1.9-1.2,3.6-3,5.2c-1.9,1.8-3.9,4.5-3.9,6.9
			c0,1.9,0.4,3.7,0.5,5.6c0.6,13.4,3,26.5,8.3,39c0.8,1.7,2.8,3.6,4.6,4.1c8.3,2.6,10.1,4.8,10.2,13.9c0,2.3,0,4.5,0,6.8
			c0,4,0,8.1,0,12.1c0,5.6,0,11.2,0.3,16.7c0,0.5-0.1,0.9-0.1,1.4c0.2,8.1-1.6,15.4-5.2,22.5c-2.2,4.2-4.4,8.3-6.5,12.5
			c-5.7,11.1-13.9,19.1-26.5,22.1c-11.7,2.7-23.3,6.8-34.8-0.9c-1.5-1-3.5-1.5-5.3-1.9c-8.6-1.8-16.2-5.3-21.6-12.8
			c-2.1-3-5.5-5.1-8.5-7.4c-36.6-27.3-90.6-29.3-130.6-4.7c-35.8-54.1-83.7-69.8-144.3-45.3c-1,0.4-1.8,0.6-2.8,1
			c3.6-10.3,7-19.9,10.2-29.5c4.7-14.2,9.2-28.4,10.4-43.2c0.3-3.8,0.1-7.6-0.1-11.5c-0.1-1.7,0.1-3.3-0.1-4.9
			c-0.2-2-0.2-4.2,0.3-6.2c8.1-31.3,14.6-63.2,28.4-92.8c2.6-5.5,6.3-10.4,9.6-15.9c1.4,1.2,1.7,1.4,1.9,1.7c0.2,0.3,0.4,0.7,0.5,1
			c2.3,12.4,10.4,17.6,22.3,18.3c1.5,0.1,3.3,0.8,4.5,1.8c7.3,6.1,15,5.8,23.9,3.9c7.2-1.6,15.1-0.4,22.6-0.4c0.3,0,0.6,0.5,0.9,0.7
			c8.1,6.1,16.8,6,25.7,2.3c3.1-1.3,5.1-0.3,8,0.6c6.5,2,13.5,3.9,20.1,3.3c9.3-0.7,14.6-9.1,14.7-18.3c0-0.9,0.2-1.7,0.2-2.6
			c-0.9-9.5-1-19.1-1-28.7c0-1.7-0.2-3.4-0.2-5.1c0.1-7.1,1.3-14.2,1.7-21.3c0.1-1.7,0.4-3.4,0.4-5.1c-0.4-17.9-11.4-28.9-28.6-29.2
			c-43.2-0.7-86.4-0.4-129.4,3.2c-10.6,0.9-20.1,3.9-28.7,10.5c-19.1,14.6-37,30.5-53.3,48c-0.2,0-31.7,36.5-39.4,46.3
			c-12.2,15.6-24.4,43.8-30,56.5c-7.4,14.8-14.7,29.7-21.7,44.8c-14.1,30.4-26.6,61.7-45.1,89.8c-6.1,9.2-8.2,18.2-7.3,27.2
			c0.7,6.6,2.7,13.1,7,19.8c11,17.3,24.8,31.6,43.1,41.5c4.5,2.4,8.4,6.2,11.9,10c3,3.2,19.4,25.2,44.1,46.1
			c24.7,20.9,59.6,35.1,75.7,40.3c16,5.2,62.4,3.8,93.5-0.4c5.8-0.8,7.7,1.1,9.2,5.8c6.7,21.4,14,42.6,20.1,64.1
			c6,21,9.8,42.6,16.5,63.4c19.6,60.9,53.8,111.3,109,145.8c2.4,1.5,5.5,2.2,8.3,2.8c0.2,0.1,0.5,0.1,0.7,0.1c1.7,0.8,6.4,6.5,13,44
			c2,11.2,5,26,5.5,27.1c2,7.2,15.5,31.1,20.4,41c0.9,1.9,2.1,4.1,1.9,6.1c-0.1,1.2-0.2,3.2-0.3,5.5c-0.7,14.8-2,48.3-2,48.3
			c0.1,0.1,0.2,0.2,0.3,0.3c42.1,50,116.7,131.9,178.8,131.9c62.4,0,150.4-71.7,187.2-131.8c0.1-0.1,0.2-0.2,0.2-0.4
			c0,0-1.3-40.1-2.4-49.4c0-0.3-0.1-0.8-0.1-1c-0.6-4.2-0.3-7.5,2.2-11.1c13.8-20,22.2-41.5,23.9-64.6c0.5-6.6,0.1-13.3-0.5-20.1
			c-0.2-1.9,0-3.6-0.2-5.5c-0.9-6.6,1.4-9.6,6.8-12.7c29.5-16.9,56.5-37,77.7-63.9c30.7-38.8,48.9-83.3,59.3-131.3
			c6.7-31,14.8-61.5,26.8-90.9c1.3-3.2,2.7-4.1,6.2-3.7c5.3,0.6,10.5,1.1,15.8,1.6c0.1,0.1,0.1,0.2,0.1,0.2s40.2,1.8,77.1-4.3
			c28-4.6,53.6-16.1,61.8-22.6c20.1-15.9,38.1-33.7,54.3-53.5c6.5-7.9,13-15.3,22.4-20.2c18.5-9.9,31.4-25.5,41.5-43.6
			c2.9-5.1,4.1-10.1,4.5-15.1C1416.8,565.5,1414.8,557.5,1410,549.3z M847.4,873l53.2,163.7L761.4,935.5l-139.2,101.2L675.3,873
			L536.1,771.8h172.1l53.2-163.7l53.2,163.7h172.1L847.4,873z"/>
	</g>
	<polygon fill="#3B5FAB" points="760.8,666.9 800.2,788.3 927.9,788.3 824.6,863.3 864.1,984.7 760.8,909.7 657.5,984.7 697,863.3 
		593.7,788.3 721.4,788.3 	"/>
</g>
</svg>
